#!OML:ASF F:\VICON\USERDATA\INSTALL\rory3\rory3.ASF
:FULLY-SPECIFIED
:DEGREES
221
root -1.8854 14.5813 -17.9528 -538.599 -37.6379 529.183
lowerback 17.1305 -1.8985 -11.6796
upperback 0.0202699 -5.14471 -1.2547
thorax -8.73238 -2.06507 6.45516
lowerneck -14.1394 -3.99252 -2.97916
upperneck 21.3286 -5.97561 2.43648
head 9.19917 -2.97632 0.572856
rclavicle -8.16881e-015 2.5842e-015
rhumerus 42.1322 45.0119 -31.9201
rradius 101.264
rwrist -8.72963
rhand 21.6605 12.9667
rfingers 7.12502
rthumb 46.0787 -10.095
lclavicle -8.16881e-015 2.5842e-015
lhumerus -11.8975 -43.3265 85.4942
lradius 68.339
lwrist 58.0723
lhand -52.9934 -129.547
lfingers 7.12502
lthumb -25.4594 -157.867
rfemur -30.0673 28.3659 9.95683
rtibia 66.6121
rfoot -33.069 10.4511
rtoes -38.0565
lfemur -3.78538 -12.1849 -15.4385
ltibia 43.2976
lfoot -28.1402 11.7849
ltoes -40.4747
222
root -1.88274 14.5857 -17.9709 -538.276 -37.8507 528.841
lowerback 17.3001 -2.07452 -11.8999
upperback -0.0562287 -5.43683 -1.14533
thorax -8.82769 -2.18005 6.77536
lowerneck -9.30405 -4.07976 0.260121
upperneck 15.7936 -5.75212 -1.12802
head 6.28343 -2.98632 -0.878908
rclavicle 1.09785e-013 1.0138e-014
rhumerus 41.6758 45.1758 -31.9674
rradius 101.969
rwrist -8.73122
rhand 22.1683 13.7519
rfingers 7.12502
rthumb 46.5494 -9.11035
lclavicle 1.09785e-013 1.0138e-014
lhumerus -11.8624 -43.0184 86.0742
lradius 68.5808
lwrist 58.2913
lhand -52.6485 -131.364
lfingers 7.12502
lthumb -25.129 -159.73
rfemur -30.0554 28.2718 9.73116
rtibia 66.7229
rfoot -32.9822 11.0397
rtoes -36.3362
lfemur -3.86108 -12.3995 -15.6648
ltibia 43.198
lfoot -28.5512 10.6027
ltoes -37.3301
223
root -1.86492 14.593 -17.9879 -537.862 -37.9128 528.587
lowerback 17.3693 -2.07599 -12.0094
upperback -0.232801 -5.49361 -1.23693
thorax -9.05483 -2.17902 6.76118
lowerneck -10.7566 -3.95855 -0.268497
upperneck 17.571 -5.65278 -0.67704
head 7.13872 -2.93984 -0.716173
rclavicle 3.4632e-014 2.3059e-014
rhumerus 40.2785 45.1866 -32.8381
rradius 102.291
rwrist -8.85247
rhand 21.8646 12.3527
rfingers 7.12502
rthumb 46.268 -10.6294
lclavicle 3.4632e-014 2.3059e-014
lhumerus -12.1897 -43.6495 86.4908
lradius 69.0521
lwrist 59.0686
lhand -53.371 -132.094
lfingers 7.12502
lthumb -25.8211 -160.361
rfemur -30.3965 28.2632 9.48419
rtibia 66.8202
rfoot -32.9259 11.0106
rtoes -36.4913
lfemur -4.10163 -12.3704 -15.6935
ltibia 43.0877
lfoot -28.2468 10.6476
ltoes -37.9223
224
root -1.85777 14.5975 -18.0165 -537.675 -38.1483 528.433
lowerback 17.0092 -2.10708 -11.9719
upperback 0.0183074 -5.47137 -1.32209
thorax -8.58693 -2.22313 6.60153
lowerneck -12.9701 -3.66771 -1.30873
upperneck 19.87 -5.39513 0.601496
head 8.36437 -2.76489 -0.200154
rclavicle -5.40632e-014 4.96962e-015
rhumerus 39.189 44.7252 -33.3898
rradius 102.796
rwrist -8.71004
rhand 21.9222 12.4689
rfingers 7.12502
rthumb 46.3214 -10.4906
lclavicle -5.40632e-014 4.96962e-015
lhumerus -11.3826 -44.6459 86.2892
lradius 69.0534
lwrist 59.6283
lhand -53.5576 -133.038
lfingers 7.12502
lthumb -25.9998 -161.279
rfemur -30.2784 28.2617 9.53201
rtibia 66.8404
rfoot -32.948 10.2089
rtoes -37.5077
lfemur -4.06338 -12.4385 -15.6862
ltibia 42.8222
lfoot -28.0659 10.7657
ltoes -38.713
225
root -1.83829 14.6014 -18.0406 -537.525 -38.3358 528.387
lowerback 17.0978 -2.12446 -11.7898
upperback -0.0180311 -5.48157 -1.39375
thorax -8.69873 -2.22777 6.43324
lowerneck -13.481 -3.47896 -1.18039
upperneck 20.4124 -5.14837 0.44633
head 8.63046 -2.65323 -0.265404
rclavicle -4.14652e-014 -3.95581e-014
rhumerus 37.7143 44.5664 -34.2177
rradius 103.411
rwrist -8.70615
rhand 21.8951 12.3299
rfingers 7.12502
rthumb 46.2962 -10.6402
lclavicle -4.14652e-014 -3.95581e-014
lhumerus -11.227 -45.6696 86.3741
lradius 69.481
lwrist 60.4803
lhand -53.9147 -133.952
lfingers 7.12502
lthumb -26.3417 -162.143
rfemur -30.2966 28.2912 9.64374
rtibia 66.8595
rfoot -32.7983 10.2102
rtoes -36.4154
lfemur -4.10704 -12.4654 -15.5277
ltibia 42.5628
lfoot -27.8604 10.6276
ltoes -38.7258
226
root -1.82451 14.6068 -18.0751 -537.311 -38.638 528.139
lowerback 16.9691 -2.18584 -11.9896
upperback 0.127016 -5.57318 -1.36376
thorax -8.42636 -2.29113 6.57822
lowerneck -13.853 -3.26191 -0.91428
upperneck 20.3801 -4.75183 -0.116768
head 8.66191 -2.494 -0.458467
rclavicle 4.87644e-014 2.127e-014
rhumerus 36.8144 44.2555 -34.7251
rradius 103.905
rwrist -8.4742
rhand 22.383 13.0555
rfingers 7.12502
rthumb 46.7482 -9.7208
lclavicle 4.87644e-014 2.127e-014
lhumerus -10.7178 -46.2231 86.4148
lradius 69.5784
lwrist 60.5621
lhand -53.6751 -134.32
lfingers 7.12502
lthumb -26.1123 -162.545
rfemur -30.0067 28.3091 9.71638
rtibia 66.7942
rfoot -33.0466 9.02178
rtoes -38.1559
lfemur -4.07984 -12.6178 -15.5643
ltibia 42.2974
lfoot -27.4268 10.8671
ltoes -40.287
227
root -1.7908 14.5988 -18.1104 -537.383 -38.7919 528.308
lowerback 17.2345 -2.1165 -11.9396
upperback -0.0285559 -5.511 -1.30856
thorax -8.75986 -2.22687 6.62724
lowerneck -13.9408 -3.23622 -1.21188
upperneck 20.8133 -4.72559 0.0783778
head 8.83889 -2.49184 -0.35081
rclavicle 1.39584e-014 -1.33186e-014
rhumerus 35.1364 44.1224 -35.7932
rradius 104.447
rwrist -8.94645
rhand 23.1238 12.1753
rfingers 7.12502
rthumb 47.4332 -10.2977
lclavicle 1.39584e-014 -1.33186e-014
lhumerus -11.1256 -47.0962 86.9923
lradius 69.9108
lwrist 60.7796
lhand -53.9317 -134.619
lfingers 7.12502
lthumb -26.3579 -162.807
rfemur -30.135 28.4553 10.1282
rtibia 66.9902
rfoot -32.6492 9.27166
rtoes -37.1707
lfemur -4.22176 -12.5584 -15.0661
ltibia 42.3477
lfoot -27.8585 9.92989
ltoes -39.2032
228
root -1.78099 14.6041 -18.1353 -536.898 -39.3002 527.816
lowerback 17.2413 -2.18868 -11.9237
upperback -0.0577593 -5.62282 -1.43541
thorax -8.79047 -2.28219 6.5046
lowerneck -14.491 -3.22506 -1.42061
upperneck 21.4052 -4.67484 0.0536734
head 9.14875 -2.4877 -0.339984
rclavicle -2.23074e-014 3.95581e-014
rhumerus 33.6207 43.9014 -36.4822
rradius 105.131
rwrist -8.7005
rhand 22.824 11.2427
rfingers 7.12502
rthumb 47.1562 -11.3544
lclavicle -2.23074e-014 3.95581e-014
lhumerus -11.1642 -47.5952 87.4466
lradius 70.1346
lwrist 60.8304
lhand -54.0866 -135.019
lfingers 7.12502
lthumb -26.5062 -163.185
rfemur -29.9891 28.121 9.88467
rtibia 67.0528
rfoot -32.93 7.98978
rtoes -39.4306
lfemur -4.35208 -12.9554 -15.3129
ltibia 42.1215
lfoot -27.7816 9.66323
ltoes -38.1561
229
root -1.76021 14.6065 -18.1782 -536.789 -39.6417 527.6
lowerback 17.2482 -2.13688 -11.9405
upperback 0.0311639 -5.56021 -1.47459
thorax -8.70983 -2.26426 6.45478
lowerneck -13.1616 -2.96095 -0.373115
upperneck 20.0511 -4.31658 -0.750778
head 8.39413 -2.31896 -0.690404
rclavicle -4.94974e-014 2.8625e-014
rhumerus 32.1955 43.6302 -37.0889
rradius 105.816
rwrist -9.08035
rhand 23.5278 13.029
rfingers 7.12502
rthumb 47.8062 -9.27378
lclavicle -4.94974e-014 2.8625e-014
lhumerus -10.928 -48.5449 87.6729
lradius 70.4849
lwrist 61.3711
lhand -54.307 -135.573
lfingers 7.12502
lthumb -26.7171 -163.707
rfemur -29.7125 28.1594 10.0093
rtibia 67.0709
rfoot -32.554 9.36962
rtoes -35.5317
lfemur -4.29586 -12.9886 -15.2349
ltibia 41.8513
lfoot -27.4245 9.62074
ltoes -38.9712
